<svg width="112" height="98" viewBox="0 0 112 98" fill="none" xmlns="http://www.w3.org/2000/svg">
<g clip-path="url(#clip0_1_58)">
<path d="M39.9208 0.554456C61.6 0.554456 79.2872 18.2416 79.2872 39.9208C79.2872 61.6 61.6 79.2871 39.9208 79.2871C18.2416 79.2871 0.554456 61.6 0.554456 39.9208C0.554456 18.2416 18.2416 0.554456 39.9208 0.554456ZM39.9208 0C17.8535 0 0 17.8535 0 39.9208C0 61.9881 17.8535 79.8416 39.9208 79.8416C61.9881 79.8416 79.8416 61.9881 79.8416 39.9208C79.8416 17.8535 61.9881 0 39.9208 0Z" fill="#FF563F"/>
<path d="M72.0792 17.7424C93.7584 17.7424 111.446 35.4296 111.446 57.1088C111.446 78.788 93.7584 96.4751 72.0792 96.4751C50.4 96.4751 32.7128 78.788 32.7128 57.1088C32.7128 35.4296 50.4 17.7424 72.0792 17.7424ZM72.0792 17.188C50.0119 17.188 32.1584 35.0415 32.1584 57.1088C32.1584 79.1761 50.0119 97.0296 72.0792 97.0296C94.1465 97.0296 112 79.1761 112 57.1088C112 35.0415 94.1465 17.188 72.0792 17.188Z" fill="#9DDCFF"/>
<path d="M41.196 39.6438H74.9624C74.9624 39.4775 74.9624 39.2557 74.9069 39.0894H41.4733C41.3624 39.2557 41.2515 39.4775 41.196 39.6438Z" fill="url(#paint0_linear_1_58)"/>
<path d="M37.7584 48.5149H74.2416C74.297 48.3486 74.3525 48.1268 74.3525 47.9604H37.8693C37.8693 48.1268 37.8139 48.3486 37.7584 48.5149Z" fill="url(#paint1_linear_1_58)"/>
<path d="M37.0931 57.386H70.8594C70.9703 57.2197 71.0812 56.9979 71.1921 56.8315H37.0377C37.0377 56.9979 37.0931 57.2197 37.0931 57.386Z" fill="url(#paint2_linear_1_58)"/>
<path d="M38.9228 66.2576H63.3188C63.5406 66.0912 63.7624 65.8695 63.9842 65.7031H38.7565C38.8119 65.8695 38.8674 66.0912 38.9228 66.2576Z" fill="url(#paint3_linear_1_58)"/>
<path d="M72.8555 30.2178H49.3466C49.1248 30.3841 48.8476 30.6059 48.6258 30.7722H73.0218C73.0218 30.6059 72.9109 30.3841 72.8555 30.2178Z" fill="url(#paint4_linear_1_58)"/>
</g>
<defs>
<linearGradient id="paint0_linear_1_58" x1="41.0297" y1="39.6438" x2="74.8515" y2="39.6438" gradientUnits="userSpaceOnUse">
<stop stop-color="#FF563F"/>
<stop offset="1" stop-color="#9DDCFF"/>
</linearGradient>
<linearGradient id="paint1_linear_1_58" x1="37.703" y1="48.5149" x2="74.2971" y2="48.5149" gradientUnits="userSpaceOnUse">
<stop stop-color="#FF563F"/>
<stop offset="1" stop-color="#9DDCFF"/>
</linearGradient>
<linearGradient id="paint2_linear_1_58" x1="37.1486" y1="57.386" x2="70.9703" y2="57.386" gradientUnits="userSpaceOnUse">
<stop stop-color="#FF563F"/>
<stop offset="1" stop-color="#9DDCFF"/>
</linearGradient>
<linearGradient id="paint3_linear_1_58" x1="38.8119" y1="65.7031" x2="63.7624" y2="65.7031" gradientUnits="userSpaceOnUse">
<stop stop-color="#FF563F"/>
<stop offset="1" stop-color="#9DDCFF"/>
</linearGradient>
<linearGradient id="paint4_linear_1_58" x1="48.7921" y1="30.7722" x2="73.1882" y2="30.7722" gradientUnits="userSpaceOnUse">
<stop stop-color="#FF563F"/>
<stop offset="1" stop-color="#9DDCFF"/>
</linearGradient>
<clipPath id="clip0_1_58">
<rect width="112" height="97.0297" fill="white"/>
</clipPath>
</defs>
</svg>
