<svg width="250" height="250" viewBox="0 0 250 250" fill="none" xmlns="http://www.w3.org/2000/svg">
<g id="3 1">
<g id="Group">
<g id="Group_2">
<path id="Vector" d="M249.3 176.5L1.30005 119.3L1.40005 118.9L249.4 176.1L249.3 176.5Z" fill="white"/>
<path id="Vector_2" d="M105.171 1.27447L104.785 1.59277L249.166 176.501L249.551 176.183L105.171 1.27447Z" fill="white"/>
<path id="Vector_3" d="M11.6469 65.6292L11.1522 65.7021L32.264 208.854L32.7586 208.781L11.6469 65.6292Z" fill="white"/>
<path id="Vector_4" d="M249.255 175.999L32.3888 208.609L32.4631 209.104L249.329 176.494L249.255 175.999Z" fill="white"/>
<path id="Vector_5" d="M104.789 1.21016L1.20703 118.92L1.58238 119.25L105.164 1.54046L104.789 1.21016Z" fill="white"/>
<path id="Vector_6" d="M11.091 65.5365L1.11951 119.012L1.61101 119.103L11.5825 65.6282L11.091 65.5365Z" fill="white"/>
<path id="Vector_7" d="M32.6 209L32.3 208.6L235.5 49.6997L235.7 50.0997L32.6 209Z" fill="white"/>
<path id="Vector_8" d="M105.076 1.12549L104.902 1.59424L235.589 50.1194L235.763 49.6506L105.076 1.12549Z" fill="white"/>
<path id="Vector_9" d="M11.5027 65.4196L11.2919 65.873L249.327 176.569L249.538 176.116L11.5027 65.4196Z" fill="white"/>
<path id="Vector_10" d="M235.601 49.7098L11.3633 65.4834L11.3984 65.9821L235.636 50.2085L235.601 49.7098Z" fill="white"/>
<path id="Vector_11" d="M104.991 1.3893L32.0508 208.632L32.5224 208.798L105.463 1.5553L104.991 1.3893Z" fill="white"/>
</g>
<g id="Group_3">
<path id="Vector_12" d="M250 176.1C250 176.7 249.5 177.2 248.9 177.2C248.3 177.2 247.8 176.7 247.8 176.1C247.8 175.5 248.3 175 248.9 175C249.5 175 250 175.5 250 176.1Z" fill="white"/>
<path id="Vector_13" d="M236.6 49.8998C236.6 50.4998 236.1 50.9998 235.5 50.9998C234.9 50.9998 234.4 50.4998 234.4 49.8998C234.4 49.2998 234.9 48.7998 235.5 48.7998C236.1 48.7998 236.6 49.2998 236.6 49.8998Z" fill="white"/>
<path id="Vector_14" d="M106.1 1.6C106.1 2.2 105.6 2.7 105 2.7C104.4 2.7 103.9 2.2 103.9 1.6C103.9 1 104.4 0.5 105 0.5C105.6 0.5 106.1 1 106.1 1.6Z" fill="white"/>
<path id="Vector_15" d="M12.5 65.7001C12.5 66.3001 12 66.8001 11.4 66.8001C10.8 66.8001 10.3 66.3001 10.3 65.7001C10.3 65.1001 10.8 64.6001 11.4 64.6001C12 64.6001 12.5 65.1001 12.5 65.7001Z" fill="white"/>
<path id="Vector_16" d="M1.40005 120.2C2.00756 120.2 2.50005 119.708 2.50005 119.1C2.50005 118.492 2.00756 118 1.40005 118C0.792535 118 0.300049 118.492 0.300049 119.1C0.300049 119.708 0.792535 120.2 1.40005 120.2Z" fill="white"/>
<path id="Vector_17" d="M33.6 208.7C33.6 209.3 33.1 209.8 32.5 209.8C31.9 209.8 31.4 209.3 31.4 208.7C31.4 208.1 31.9 207.6 32.5 207.6C33.1 207.6 33.6 208.1 33.6 208.7Z" fill="white"/>
</g>
</g>
</g>
</svg>
