<svg width="250" height="250" viewBox="0 0 250 250" fill="none" xmlns="http://www.w3.org/2000/svg">
<g id="2 1">
<g id="Group">
<path id="Vector" d="M168.1 66.0001L249.9 120L250 119.9L168.3 65.9001L212.4 43.8001V43.7001L212.5 43.6001L161.5 1.1001L161.4 1.2001V1.1001L81.1 32.7001L33.6 39.6001V39.7001H33.5L40 113.3L1.10001 149.3L1.20001 149.4L1.10001 149.5L49 214.8L49.1 214.7V214.8L211 178.9V178.8H211.1L249 119.8H248.9V119.7L178.5 153.2L106.6 96.8001L168.1 66.0001ZM106.4 96.6001L80.4 76.2001L123.4 36.4001L167.9 65.8001L106.4 96.6001ZM106.2 96.7001L41.6 129L40.2 113.3L80.2 76.3001L106.2 96.7001ZM123.4 36.2001L81.5 32.7001L161.1 1.4001L123.4 36.2001ZM161.5 1.3001L212.1 43.6001L123.6 36.2001L161.5 1.3001ZM123.2 36.4001L80.2 76.1001L33.8 39.7001L81.1 32.9001L123.2 36.4001ZM123.7 36.4001L212 43.8001L168.1 65.8001L123.7 36.4001ZM33.7 39.8001L80.1 76.2001L40.2 113.1L33.7 39.8001ZM41.4 129.1L1.70001 149L40 113.5L41.4 129.1ZM41.4 129.3L48.9 214.4L1.30001 149.3L41.4 129.3ZM49.8 214.5L178.3 153.4L210.7 178.8L49.8 214.5ZM248.6 120L211 178.7L178.6 153.3L248.6 120ZM178.2 153.3L49.2 214.6L41.6 129.2L106.3 96.8001L178.2 153.3Z" fill="white"/>
<g id="Group_2">
<path id="Vector_2" d="M212.1 44.9C212.763 44.9 213.3 44.3627 213.3 43.7C213.3 43.0373 212.763 42.5 212.1 42.5C211.437 42.5 210.9 43.0373 210.9 43.7C210.9 44.3627 211.437 44.9 212.1 44.9Z" fill="white"/>
<path id="Vector_3" d="M162.6 1.2C162.6 1.8 162.1 2.4 161.4 2.4C160.8 2.4 160.2 1.9 160.2 1.2C160.2 0.6 160.7 0 161.4 0C162.1 0 162.6 0.5 162.6 1.2Z" fill="white"/>
<path id="Vector_4" d="M33.6 40.7999C34.2627 40.7999 34.8 40.2626 34.8 39.5999C34.8 38.9372 34.2627 38.3999 33.6 38.3999C32.9372 38.3999 32.4 38.9372 32.4 39.5999C32.4 40.2626 32.9372 40.7999 33.6 40.7999Z" fill="white"/>
<path id="Vector_5" d="M1.2 150.5C1.86274 150.5 2.4 149.963 2.4 149.3C2.4 148.637 1.86274 148.1 1.2 148.1C0.537258 148.1 0 148.637 0 149.3C0 149.963 0.537258 150.5 1.2 150.5Z" fill="white"/>
<path id="Vector_6" d="M49.1 215.9C49.7627 215.9 50.3 215.363 50.3 214.7C50.3 214.037 49.7627 213.5 49.1 213.5C48.4372 213.5 47.9 214.037 47.9 214.7C47.9 215.363 48.4372 215.9 49.1 215.9Z" fill="white"/>
<path id="Vector_7" d="M212.1 178.8C212.1 179.4 211.6 180 210.9 180C210.3 180 209.7 179.5 209.7 178.8C209.7 178.2 210.2 177.6 210.9 177.6C211.6 177.7 212.1 178.2 212.1 178.8Z" fill="white"/>
<path id="Vector_8" d="M250 119.8C250 120.4 249.5 121 248.8 121C248.2 121 247.6 120.5 247.6 119.8C247.6 119.2 248.1 118.6 248.8 118.6C249.5 118.6 250 119.2 250 119.8Z" fill="white"/>
</g>
</g>
</g>
</svg>
