<svg width="250" height="250" viewBox="0 0 250 250" fill="none" xmlns="http://www.w3.org/2000/svg">
<g id="4 1" clip-path="url(#clip0_6_22)">
<g id="Group">
<g id="Group_2">
<g id="Group_3">
<path id="Vector" d="M248.4 100.6L75.1 0.999805L75.2 0.799805L248.5 100.4L248.4 100.6Z" fill="white"/>
<path id="Vector_2" d="M91.9999 249.1L36.3999 20.4999L36.6999 20.3999L92.1999 249L91.9999 249.1Z" fill="white"/>
<path id="Vector_3" d="M91.9999 249.1L74.9999 0.899902H75.2999L92.1999 249.1H91.9999Z" fill="white"/>
<path id="Vector_4" d="M248.5 100.6L1.79993 89.2V89L248.5 100.4V100.6Z" fill="white"/>
<path id="Vector_5" d="M91.9999 249.1L1.79993 89.1996L1.89993 89.0996L92.1999 249L91.9999 249.1Z" fill="white"/>
<path id="Vector_6" d="M248.4 100.6L36.4999 20.5999L36.5999 20.3999L248.5 100.4L248.4 100.6Z" fill="white"/>
<path id="Vector_7" d="M92.2 249.2L92.1 249L235.9 146L236 146.1L92.2 249.2Z" fill="white"/>
<path id="Vector_8" d="M36.5999 20.4998L36.4999 20.3998L75.0999 0.799805L75.1999 0.999805L36.5999 20.4998Z" fill="white"/>
<path id="Vector_9" d="M236 146.2L1.79993 89.2L1.89993 89L236 145.9V146.2Z" fill="white"/>
<path id="Vector_10" d="M248.198 100.48L236.092 146.099L236.285 146.15L248.392 100.531L248.198 100.48Z" fill="white"/>
</g>
<g id="Group_4">
<path id="Vector_11" d="M237 146.1C237 146.7 236.5 147.1 236 147.1C235.4 147.1 235 146.6 235 146.1C235 145.5 235.5 145.1 236 145.1C236.6 145 237 145.5 237 146.1Z" fill="white"/>
<path id="Vector_12" d="M249.3 100.5C249.3 101 248.9 101.3 248.5 101.3C248 101.3 247.7 100.9 247.7 100.5C247.7 100 248.1 99.7 248.5 99.7C248.9 99.6 249.3 100 249.3 100.5Z" fill="white"/>
<path id="Vector_13" d="M76.0999 0.9C76.0999 1.4 75.6999 1.8 75.1999 1.8C74.6999 1.8 74.2999 1.4 74.2999 0.9C74.2999 0.4 74.6999 0 75.1999 0C75.6999 0 76.0999 0.4 76.0999 0.9Z" fill="white"/>
<path id="Vector_14" d="M37.6999 20.4998C37.6999 21.0998 37.1999 21.6998 36.4999 21.6998C35.8999 21.6998 35.2999 21.1998 35.2999 20.4998C35.2999 19.8998 35.7999 19.2998 36.4999 19.2998C37.1999 19.2998 37.6999 19.7998 37.6999 20.4998Z" fill="white"/>
<path id="Vector_15" d="M2.99998 89.0999C2.99998 89.6999 2.49998 90.2999 1.79998 90.2999C1.19998 90.2999 0.599976 89.7999 0.599976 89.0999C0.599976 88.4999 1.09998 87.8999 1.79998 87.8999C2.49998 87.9999 2.99998 88.4999 2.99998 89.0999Z" fill="white"/>
<path id="Vector_16" d="M93.0999 249.1C93.0999 249.6 92.6999 250 92.1999 250C91.6999 250 91.2999 249.6 91.2999 249.1C91.2999 248.6 91.6999 248.2 92.1999 248.2C92.6999 248.2 93.0999 248.5 93.0999 249.1Z" fill="white"/>
</g>
</g>
</g>
</g>
<defs>
<clipPath id="clip0_6_22">
<rect width="250" height="250" fill="white"/>
</clipPath>
</defs>
</svg>
