<svg width="250" height="250" viewBox="0 0 250 250" fill="none" xmlns="http://www.w3.org/2000/svg">
<g id="5 1">
<g id="Group">
<g id="Group_2">
<path id="Vector" d="M92.05 5.8501L91.85 5.8501L92.15 7.05009L90.85 5.6501L90.75 5.75009L90.65 5.75009L32.55 168.25L32.55 209.25L32.65 209.25L32.65 209.35L61.45 220.55L93.15 205.55L154.95 244.35L155.05 244.25L155.15 244.35L218.45 147.05L218.25 146.95L155.05 244.05L139.15 183.95L217.35 147.05L217.35 146.95L217.45 146.95L214.35 39.1501L214.25 39.1501L214.15 39.0501L157.15 79.5501L92.45 7.25009L92.05 5.8501ZM66.05 188.25L67.65 176.65L82.75 162.55L113.25 159.05L80.7501 197.55L66.05 188.25ZM80.65 197.65L61.6501 220.15L65.95 188.45L80.65 197.65ZM32.85 167.95L90.65 6.55009L72.45 139.85L32.85 167.95ZM72.35 140.15L69.05 163.95L32.95 168.15L72.35 140.15ZM33.95 168.15L33.95 168.35L59.25 184.25L32.75 209.05L32.75 168.35L33.95 168.15ZM34.05 168.15L69.15 164.15L67.45 176.65L59.45 184.15L34.05 168.15ZM69.25 164.15L82.25 162.65L67.65 176.35L69.25 164.15ZM67.35 176.85L65.85 188.15L59.55 184.25L67.35 176.85ZM82.85 162.35L123.25 124.55L127.75 141.65L113.25 158.85L82.85 162.35ZM113.45 159.05L131.85 156.95L138.95 183.85L93.2501 205.35L80.95 197.65L113.45 159.05ZM113.55 158.85L127.75 141.95L131.65 156.75L113.55 158.85ZM127.95 141.75L168.95 93.1501L217.05 146.95L131.95 156.65L127.95 141.75ZM169.05 92.9501L214.05 39.4501L217.15 146.65L169.05 92.9501ZM168.95 92.7501L163.55 86.7501L213.05 40.3501L168.95 92.7501ZM168.75 92.9501L127.95 141.45L123.45 124.35L163.45 86.8501L168.75 92.9501ZM123.35 124.15L118.85 107.05L157.15 79.8501L163.35 86.7501L123.35 124.15ZM123.15 124.35L82.55 162.35L69.35 163.85L72.65 139.95L118.75 107.25L123.15 124.35ZM72.65 139.75L90.95 5.95009L92.35 7.55009L118.65 107.05L72.65 139.75ZM32.8501 209.25L59.45 184.35L65.85 188.35L61.45 220.35L32.8501 209.25ZM61.8501 220.25L80.7501 197.75L93.05 205.45L61.8501 220.25ZM154.85 244.05L93.45 205.55L138.95 184.05L154.85 244.05ZM131.95 156.85L216.65 147.05L139.05 183.75L131.95 156.85ZM213.05 40.0501L163.35 86.6501L157.25 79.7501L213.05 40.0501ZM156.95 79.7501L118.75 106.95L92.55 7.8501L156.95 79.7501Z" fill="white"/>
<g id="Group_3">
<path id="Vector_2" d="M213.95 38.55C214.55 38.55 215.05 39.05 215.05 39.65C215.05 40.25 214.55 40.75 213.95 40.75C213.35 40.75 212.85 40.25 212.85 39.65C212.85 39.05 213.35 38.55 213.95 38.55Z" fill="white"/>
<path id="Vector_3" d="M90.85 4.7502C91.45 4.7502 91.95 5.2502 91.95 5.8502C91.95 6.4502 91.45 6.9502 90.85 6.9502C90.25 6.9502 89.75 6.4502 89.75 5.8502C89.75 5.2502 90.25 4.7502 90.85 4.7502Z" fill="white"/>
<path id="Vector_4" d="M32.85 167.15C33.45 167.15 33.95 167.65 33.95 168.25C33.95 168.85 33.45 169.35 32.85 169.35C32.25 169.35 31.75 168.85 31.75 168.25C31.75 167.65 32.25 167.15 32.85 167.15Z" fill="white"/>
<path id="Vector_5" d="M61.5499 219.35C62.1499 219.35 62.65 219.85 62.65 220.45C62.65 221.05 62.1499 221.55 61.5499 221.55C60.9499 221.55 60.45 221.05 60.45 220.45C60.45 219.85 60.9499 219.35 61.5499 219.35Z" fill="white"/>
<path id="Vector_6" d="M154.95 243.15C155.55 243.15 156.05 243.65 156.05 244.25C156.05 244.85 155.55 245.35 154.95 245.35C154.35 245.35 153.85 244.85 153.85 244.25C153.85 243.65 154.35 243.15 154.95 243.15Z" fill="white"/>
<path id="Vector_7" d="M32.65 208.15C33.25 208.15 33.75 208.65 33.75 209.25C33.75 209.85 33.25 210.35 32.65 210.35C32.05 210.35 31.55 209.85 31.55 209.25C31.55 208.65 32.05 208.15 32.65 208.15Z" fill="white"/>
<path id="Vector_8" d="M217.15 145.85C217.75 145.85 218.25 146.35 218.25 146.95C218.25 147.55 217.75 148.05 217.15 148.05C216.55 148.05 216.05 147.55 216.05 146.95C216.05 146.35 216.55 145.85 217.15 145.85Z" fill="white"/>
</g>
</g>
</g>
</g>
</svg>
