<svg width="250" height="250" viewBox="0 0 250 250" fill="none" xmlns="http://www.w3.org/2000/svg">
<g id="1 441" clip-path="url(#clip0_1_70)">
<g id="Group">
<path id="Vector" d="M249.1 120.2L249.9 120.4L249.2 120.1V83.4002L171.3 61.6002L191.6 0.800195H191.5V0.700195L89.6 38.8002L39.3 24.7002L39.1 24.6002V24.7002V24.8002L1.00001 71.9002H0.900012V72.0002L0.700012 72.2002H1.00001L77.4 220.9L77.7 221.5L77.4 220.2L117.7 221.9H117.8L249.1 120.2ZM39.4 25.0002L78.7 42.8002L50.7 53.4002L39.4 25.2002V25.0002ZM50.5 53.4002L45.3 55.3002L39.6 26.2002L50.5 53.4002ZM50.5 53.6002L62.6 83.8002L50.4 81.4002L45.3 55.5002L50.5 53.6002ZM50.7 53.6002L79 43.0002L152.2 76.2002L140.4 98.9002L62.9 83.9002L50.7 53.6002ZM164.4 81.7002L157.6 102.2L140.6 98.9002L152.4 76.2002L164.4 81.7002ZM152.5 76.1002L161.4 59.1002L171.1 61.8002L164.5 81.6002L152.5 76.1002ZM164.6 81.8002L248.3 119.8L157.8 102.3L164.6 81.8002ZM140.3 99.1002L99.9 176.8L62.9 84.2002L140.3 99.1002ZM140.5 99.1002L157.5 102.4L117.8 221.5L100 177L140.5 99.1002ZM157.7 102.5L248.8 120.1L118 221.5L157.7 102.5ZM249 83.6002V119.9L164.7 81.6002L171.3 61.8002L249 83.6002ZM171.1 61.6002L161.4 58.9002L191 2.0002L171.1 61.6002ZM191.3 1.0002L161.2 58.9002L89.9 38.9002L191.3 1.0002ZM89.6 39.0002L161.1 59.0002L152.3 76.0002L79.3 42.9002L89.6 39.0002ZM79 42.8002L40.5 25.3002L89.2 38.9002L79 42.8002ZM39.2 25.1002L39.3 25.3002L45.2 55.5002L1.30001 71.8002L39.2 25.1002ZM45.1 55.6002L50.1 81.4002L1.40001 72.0002L45.1 55.6002ZM1.20001 72.2002L50.2 81.7002L77.2 220.1L1.20001 72.2002ZM50.4 81.7002L62.7 84.1002L99.8 177L77.5 220L50.4 81.7002ZM99.9 177.2L117.6 221.6L77.6 219.9L99.9 177.2Z" fill="white"/>
<g id="Group_2">
<path id="Vector_2" d="M192.5 1C192.5 1.6 192.1 2 191.5 2C190.9 2 190.5 1.5 190.5 1C190.5 0.4 191 0 191.5 0C192.1 0 192.5 0.5 192.5 1Z" fill="white"/>
<path id="Vector_3" d="M250.1 83.5C250.1 84.1 249.6 84.5 249.1 84.5C248.5 84.5 248.1 84 248.1 83.5C248.1 82.9 248.6 82.5 249.1 82.5C249.6 82.5 250.1 82.9 250.1 83.5Z" fill="white"/>
<path id="Vector_4" d="M250.1 120C250.1 120.6 249.6 121 249.1 121C248.5 121 248.1 120.5 248.1 120C248.1 119.4 248.6 119 249.1 119C249.6 119 250.1 119.5 250.1 120Z" fill="white"/>
<path id="Vector_5" d="M118.8 221.8C118.8 222.4 118.3 222.8 117.8 222.8C117.2 222.8 116.8 222.3 116.8 221.8C116.8 221.2 117.2 220.8 117.8 220.8C118.3 220.8 118.8 221.2 118.8 221.8Z" fill="white"/>
<path id="Vector_6" d="M78.5 219.8C78.5 220.4 78 220.8 77.5 220.8C76.9 220.8 76.5 220.3 76.5 219.8C76.5 219.2 77 218.8 77.5 218.8C78.1 218.8 78.5 219.2 78.5 219.8Z" fill="white"/>
<path id="Vector_7" d="M2 72C2 72.6 1.5 73 1 73C0.4 73 0 72.5 0 72C0 71.4 0.5 71 1 71C1.6 71 2 71.5 2 72Z" fill="white"/>
<path id="Vector_8" d="M40.2 24.7998C40.2 25.3998 39.7 25.7998 39.2 25.7998C38.6 25.7998 38.2 25.2998 38.2 24.7998C38.2 24.1998 38.7 23.7998 39.2 23.7998C39.7 23.7998 40.2 24.2998 40.2 24.7998Z" fill="white"/>
</g>
</g>
</g>
<defs>
<clipPath id="clip0_1_70">
<rect width="250" height="250" fill="white"/>
</clipPath>
</defs>
</svg>
