<svg width="236" height="30" viewBox="0 0 236 30" fill="none" xmlns="http://www.w3.org/2000/svg">
<g id="Logo" clip-path="url(#clip0_1_429)">
<g id="&#208;&#161;&#208;&#187;&#208;&#190;&#208;&#185; 2">
<g id="&#208;&#161;&#208;&#187;&#208;&#190;&#208;&#185; 1">
<path id="Vector" d="M28.8945 1.27771L17.606 18.2191L7.33549 3.08092V3.03665L6.11428 1.27771H0V30.0486H7.33549V14.9467L17.606 30.0486L27.8765 14.9467V30.0486H35.2141V1.27771H28.8945Z" fill="#223084"/>
<path id="Vector_2" d="M129.871 1.27771H104.86V8.47043H113.696V30.0486H121.034V8.47043H129.871V1.27771Z" fill="#223084"/>
<path id="Vector_3" d="M142.205 1.27771H134.871V30.0486H142.205V1.27771Z" fill="#223084"/>
<path id="Vector_4" d="M205.033 8.47244V1.27771H180.021V30.0526H205.033V22.8559H187.359V19.2615H205.033V12.0668H187.359V8.47244H205.033Z" fill="#223084"/>
<path id="Vector_5" d="M166.282 1.27771V17.2128L155.441 1.27771H148.608V30.0486H155.944V14.1497L166.972 30.0486H173.622V1.27771H166.282Z" fill="#223084"/>
<path id="Vector_6" d="M235.656 1.15393H227.547L221.81 9.54611V9.5602L216.092 1.15393H207.96L217.765 15.5032L207.96 29.9248H215.992L221.81 21.5347H221.728L221.81 21.4179V21.5347L221.847 21.4783L227.623 29.9248H235.656L225.88 15.5434L235.656 1.15393Z" fill="#223084"/>
<path id="Vector_7" d="M91.2605 14.2261H81.7638V8.47233H91.2605C92.0252 8.49216 92.7518 8.80397 93.2856 9.34132C93.8193 9.87868 94.1179 10.5991 94.1179 11.3492C94.1179 12.0993 93.8193 12.8198 93.2856 13.3571C92.7518 13.8945 92.0252 14.2063 91.2605 14.2261ZM101.523 11.3482C101.523 8.67945 100.442 6.12 98.5171 4.2329C96.5925 2.34581 93.9823 1.28564 91.2605 1.28564H74.4304V30.0565H81.7659V21.4208H87.5702L93.4977 30.0565H101.529L95.152 20.6702C97.0393 19.9112 98.6535 18.6186 99.7891 16.9571C100.925 15.2956 101.53 13.3403 101.529 11.3402L101.523 11.3482Z" fill="#223084"/>
<path id="Vector_8" d="M74.4283 30.0567L54.8643 1.27771L47.9721 11.294C47.9721 11.294 50.7204 7.24079 53.5138 11.294L58.4951 18.5431H43.038L35.2141 30.0567H43.2453L46.2317 25.7056C51.1493 18.5431 58.4951 18.5431 58.4951 18.5431L66.395 30.0567H74.4283Z" fill="#223084"/>
</g>
</g>
</g>
<defs>
<clipPath id="clip0_1_429">
<rect width="236" height="30" fill="white"/>
</clipPath>
</defs>
</svg>
