<svg width="160" height="56" viewBox="0 0 160 56" fill="none" xmlns="http://www.w3.org/2000/svg">
<g clip-path="url(#clip0_1_26)">
<path d="M21.8955 5.43951C19.5911 5.55685 17.6251 5.94897 15.6121 6.68454C12.8515 7.69773 10.4059 9.25188 8.2957 11.3327C5.88829 13.7111 4.20193 16.5217 3.25133 19.7473C3.06591 20.3799 3.06297 20.3827 2.78044 20.8493C2.43316 21.4274 1.87398 22.5093 1.60617 23.1218C0.687936 25.2312 0.164075 27.458 0.0286947 29.8049C-0.00956489 30.4775 -0.00956489 33.0076 0.0286947 33.6688C0.158189 35.9242 0.632018 38.0078 1.47079 40.0228C3.19247 44.1557 6.25912 47.5645 10.2705 49.8113C10.7473 50.0775 11.8744 50.6184 12.4189 50.8417C14.5467 51.7175 16.8541 52.2298 19.2468 52.3586C19.6117 52.3786 30.3509 52.3872 51.7174 52.3872H83.6405V51.4427V50.4982H51.6703C30.2508 50.4982 19.547 50.4896 19.232 50.4696C18.0077 50.3923 17.0424 50.2492 15.8652 49.9658C11.4153 48.8983 7.50108 46.1993 4.95535 42.4413C3.16892 39.8052 2.1624 36.8257 1.96816 33.6116C1.92696 32.9304 1.9505 29.8307 1.99759 29.347C2.08294 28.4941 2.20655 27.7213 2.36253 27.0286L2.45671 26.6136L2.46259 26.9714C2.50085 29.0178 2.74807 30.7093 3.27781 32.481C4.73756 37.3896 8.11912 41.5569 12.7426 44.1442C13.2194 44.4104 14.3466 44.9514 14.8911 45.1746C17.0189 46.0504 19.3262 46.5627 21.7189 46.6915C22.0868 46.7116 39.3654 46.7202 74.6878 46.7202H127.109V45.7757V44.8312H74.6407C39.2801 44.8312 22.0221 44.8226 21.7042 44.8025C20.4799 44.7253 19.5146 44.5821 18.3374 44.2988C13.8875 43.2312 9.97324 40.5322 7.4275 36.7742C5.64108 34.1382 4.63456 31.1587 4.44032 27.9445C4.39911 27.2633 4.42266 24.1636 4.46975 23.6799C4.55215 22.8814 4.67576 22.0743 4.81114 21.4532C4.87883 21.1498 4.89649 21.1155 5.08778 20.8378C5.74408 19.8819 6.64465 18.84 7.50697 18.0272C10.7031 15.0162 14.7881 13.2703 19.2468 13.0041C19.5558 12.987 23.164 12.9755 29.1884 12.9755H38.6414V12.031V11.0836L28.8646 11.0951C21.5159 11.1037 18.9937 11.1123 18.717 11.138C16.5863 11.3384 14.9087 11.7047 13.1399 12.3516C11.1093 13.0957 9.26691 14.129 7.50991 15.5028C7.16557 15.7718 7.15086 15.7804 7.22738 15.6602C7.43633 15.3368 7.7895 14.8416 8.06909 14.4781C11.0004 10.66 15.3737 8.14137 20.218 7.48307C21.4511 7.31421 21.6895 7.30848 27.1871 7.30848H32.1667V6.36398V5.41947L27.1135 5.42519C24.3323 5.42805 21.9838 5.43378 21.8955 5.43951Z" fill="white"/>
<path d="M18.395 26.7276V36.187H19.4103H20.4257V27.7008V19.2145H20.7494H21.0731V27.7008V36.187H22.0885H23.1038V27.7008V19.2116L27.3065 19.2231L31.5062 19.2317L31.7505 19.2947C32.6069 19.5179 33.0749 19.973 33.3103 20.8173C33.3868 21.0864 33.3868 21.0978 33.3986 22.4058C33.4104 23.8512 33.3957 24.063 33.2544 24.4952C32.966 25.3796 32.3008 25.8318 31.1737 25.9119C30.9676 25.9262 29.3078 25.9405 27.4831 25.9405H24.1633V26.8593V27.7752L27.9687 27.7637C31.4238 27.7551 31.8005 27.7494 32.0801 27.7036C33.1425 27.5319 33.8018 27.2228 34.3845 26.6275C34.9084 26.0894 35.2056 25.4483 35.3645 24.5066C35.4293 24.1231 35.4587 21.5357 35.4057 20.9461C35.2027 18.6936 34.0078 17.5001 31.7564 17.2997C31.5327 17.2797 29.2312 17.2683 24.9079 17.2683H18.395V26.7276Z" fill="white"/>
<path d="M41.1212 22.6777C38.9816 22.8237 37.772 23.8397 37.4012 25.7974C37.3335 26.1552 37.3335 26.1609 37.3218 29.2177C37.3129 32.3947 37.3188 32.6637 37.4336 33.2161C37.8103 35.0049 38.9905 35.9781 41.0094 36.1584C41.2095 36.1756 42.9547 36.187 45.5652 36.187H49.7944V35.2711V34.3581L45.5799 34.3467C41.0477 34.3352 41.2419 34.3409 40.7475 34.1807C40.0882 33.966 39.6262 33.5166 39.4084 32.8841C39.2259 32.346 39.2259 32.3288 39.2377 29.2062C39.2465 26.4357 39.2465 26.3785 39.3083 26.1352C39.5732 25.0905 40.1647 24.5438 41.2448 24.3492C41.5185 24.2977 41.7216 24.2948 44.0554 24.2948C46.7807 24.2948 46.7542 24.2948 47.2104 24.4522C47.7607 24.6469 48.108 25.0247 48.2817 25.6114C48.3582 25.8747 48.3788 27.2027 48.3081 27.5004C48.1816 28.0585 47.8225 28.4363 47.2339 28.6367C46.8425 28.7683 46.7042 28.7741 43.4021 28.7741H40.2884V29.5325V30.2939L43.9466 30.2824C47.543 30.2738 47.6077 30.271 47.8814 30.2137C48.3081 30.1193 48.5465 30.042 48.8526 29.8874C49.6001 29.5154 50.0239 28.9343 50.1976 28.0471C50.2417 27.8267 50.2476 27.6178 50.2476 26.7133C50.2447 25.7402 50.2388 25.6085 50.1829 25.2994C49.8974 23.7825 49.041 22.9782 47.4341 22.7178C47.1633 22.6748 46.8219 22.6663 44.2909 22.6605C42.7281 22.6577 41.3037 22.6663 41.1212 22.6777Z" fill="white"/>
<path d="M53.2968 29.418V36.187H54.268H55.2392V32.9528V29.7186H56.2045H57.1669L60.2395 32.9528L63.309 36.187H64.4745H65.6399L65.5046 36.0496C65.4074 35.9523 61.0959 31.3099 58.9416 28.9859C58.8857 28.9258 58.8886 28.9229 62.0524 25.8089C63.7917 24.0945 65.2161 22.6834 65.2161 22.6691C65.2161 22.6577 64.6982 22.6491 64.0654 22.6491H62.9147L62.6174 22.9496C62.4526 23.1156 61.1665 24.4093 59.7568 25.8261L57.1963 28.3991H56.2193L55.2392 28.402L55.2333 25.5313L55.2245 22.6634L54.2621 22.6548L53.2968 22.6491V29.418Z" fill="white"/>
<path d="M70.6339 22.6693C70.0982 22.6922 69.4949 22.7981 69.077 22.9412C67.6349 23.4363 66.855 24.5468 66.6902 26.3414C66.6519 26.7764 66.6519 32.0542 66.6902 32.495C66.8668 34.4527 67.7732 35.6004 69.4714 36.0154C70.1041 36.1729 70.1365 36.1729 73.415 36.1729H76.4464L76.829 36.107C77.6942 35.9553 78.3741 35.6548 78.8744 35.1969C79.5248 34.6015 79.9074 33.7543 80.0222 32.6467C80.0457 32.4349 80.0516 31.3673 80.0428 29.2178C80.034 26.1754 80.031 26.0895 79.9692 25.7833C79.875 25.2996 79.7691 24.9847 79.5837 24.6098C79.1216 23.6796 78.3888 23.1129 77.2999 22.841C76.8996 22.7408 76.6907 22.7122 76.1933 22.6779C75.8254 22.655 71.1636 22.6464 70.6339 22.6693ZM75.7253 24.5669C76.1845 24.6069 76.5082 24.6871 76.8584 24.8531C77.5589 25.1822 77.9444 25.7604 78.0798 26.6763C78.1033 26.8337 78.1092 27.7009 78.1033 29.5756C78.0915 32.2031 78.0915 32.2546 78.0297 32.4807C77.8796 33.0302 77.7001 33.3536 77.3823 33.6599C77.0203 34.0062 76.4905 34.2237 75.8313 34.2953C75.4605 34.3354 71.246 34.3382 70.884 34.2981C70.2483 34.2266 69.751 34.0262 69.386 33.6942C69.0181 33.3594 68.8239 33.0045 68.6885 32.4234C68.6238 32.1401 68.6208 32.1057 68.6091 29.6329C68.5973 26.9539 68.6061 26.7335 68.7386 26.2469C68.8592 25.8033 69.0152 25.5371 69.3242 25.2395C69.5391 25.0277 69.6362 24.9561 69.8422 24.8588C70.1365 24.7157 70.5721 24.6012 70.9429 24.5697C71.3314 24.5354 75.3251 24.5325 75.7253 24.5669Z" fill="white"/>
<path d="M83.2574 29.418V36.187H84.2139H85.1704V32.9099V29.6327H89.8645H94.5587V32.9099V36.187H95.5299H96.5011V29.418V22.6491H95.5299H94.5587V25.2536V27.8582L89.8733 27.8525L85.1851 27.8439L85.1762 25.245L85.1704 22.6491H84.2139H83.2574V29.418Z" fill="white"/>
<path d="M98.7873 22.6691C98.7756 22.6777 98.7667 23.1042 98.7667 23.6136V24.5381L101.704 24.5438L104.638 24.5524L104.647 30.3683L104.653 36.187H105.639H106.625V30.3626V24.5381H109.538H112.452V23.5936V22.6491H105.63C101.878 22.6491 98.7962 22.6577 98.7873 22.6691Z" fill="white"/>
<path d="M118.437 22.6777C116.148 22.8351 114.894 24.0143 114.661 26.2239C114.62 26.6217 114.62 32.2544 114.661 32.6322C114.776 33.6655 115.115 34.4812 115.668 35.0593C116.274 35.689 117.157 36.0525 118.326 36.1584C118.526 36.1756 120.271 36.187 122.881 36.187H127.111V35.2711V34.3581L122.896 34.3467C118.732 34.3381 118.676 34.3381 118.414 34.278C117.519 34.0748 116.981 33.6283 116.722 32.8755C116.542 32.3517 116.542 32.3231 116.554 29.2062C116.563 26.4386 116.566 26.3785 116.627 26.1352C116.889 25.0905 117.481 24.5438 118.561 24.3492C118.835 24.2977 119.038 24.2948 121.372 24.2948C124.097 24.2948 124.07 24.2948 124.527 24.4522C125.071 24.644 125.418 25.0132 125.58 25.5685C125.713 26.0293 125.727 27.1083 125.607 27.5634C125.471 28.09 125.118 28.4449 124.55 28.6367C124.15 28.7712 124.056 28.7741 120.733 28.7741H117.605V29.5325V30.2939L121.263 30.2824C124.859 30.2738 124.924 30.271 125.198 30.2137C126.566 29.9161 127.281 29.252 127.511 28.0643C127.573 27.7551 127.599 26.367 127.555 25.8117C127.411 23.9771 126.531 23.0068 124.75 22.7178C124.479 22.6748 124.138 22.6663 121.607 22.6605C120.044 22.6577 118.62 22.6663 118.437 22.6777Z" fill="white"/>
<path d="M134.433 22.6784C133.277 22.7585 132.444 23.0705 131.802 23.6572C131.113 24.2926 130.745 25.1541 130.64 26.3848C130.622 26.5995 130.61 29.3844 130.61 33.7463V40.7671H131.581H132.553V33.9266C132.553 29.247 132.561 26.9973 132.585 26.8084C132.72 25.6178 133.297 24.9108 134.345 24.6561C134.789 24.5502 135.237 24.533 137.526 24.5473C139.569 24.5588 139.704 24.5616 139.969 24.6189C141.07 24.8479 141.647 25.4203 141.876 26.5108C141.92 26.734 141.926 26.9973 141.926 29.433C141.926 31.9059 141.923 32.1263 141.873 32.3524C141.741 32.9563 141.532 33.3513 141.164 33.6919C140.802 34.0239 140.304 34.2242 139.66 34.2987C139.495 34.3158 138.291 34.3273 136.505 34.3273H133.612V35.2575V36.1905L136.961 36.1791C140.563 36.1676 140.46 36.1705 141.093 36.0159C142.453 35.6782 143.333 34.8196 143.692 33.4858C143.871 32.8103 143.869 32.859 143.869 29.4616C143.869 27.0603 143.86 26.2904 143.83 26.07C143.589 24.2783 142.656 23.1935 141.04 22.8186C140.402 22.6726 140.375 22.6698 137.482 22.664C135.993 22.6583 134.621 22.6669 134.433 22.6784Z" fill="white"/>
<path d="M147.091 23.5767V24.5097L151.382 24.5183L155.67 24.524L155.92 24.5899C156.059 24.6271 156.297 24.7129 156.45 24.7874C156.682 24.8961 156.768 24.9562 156.971 25.1537C157.165 25.3455 157.236 25.4371 157.345 25.6574C157.489 25.9522 157.577 26.2556 157.624 26.6277C157.645 26.7823 157.657 27.8355 157.657 29.5128C157.657 32.4464 157.654 32.5151 157.468 33.0446C157.339 33.4167 157.215 33.6113 156.936 33.8861C156.665 34.1494 156.382 34.3097 155.973 34.4242C155.517 34.553 155.311 34.5587 152.653 34.5501C149.875 34.5358 149.999 34.5444 149.519 34.3297C148.757 33.9834 148.465 33.2936 148.513 31.9656C148.539 31.2386 148.651 30.9209 148.995 30.5861C149.287 30.3056 149.66 30.1567 150.255 30.0909C150.417 30.0737 151.688 30.0623 153.56 30.0623H156.597V29.3038V28.5425L153.015 28.5539C149.81 28.5597 149.401 28.5682 149.166 28.6112C147.727 28.8688 146.956 29.5557 146.714 30.7864C146.641 31.1671 146.641 33.0904 146.714 33.4969C146.994 35.031 147.821 35.8381 149.401 36.1214C149.634 36.1644 150.014 36.1701 152.58 36.1815C155.62 36.193 155.985 36.1815 156.547 36.0699C158.381 35.7093 159.367 34.5644 159.567 32.5695C159.608 32.1545 159.611 26.6878 159.57 26.2814C159.375 24.3552 158.442 23.2103 156.756 22.8182C156.085 22.6636 156.253 22.6694 151.5 22.6579L147.091 22.6465V23.5767Z" fill="white"/>
</g>
<defs>
<clipPath id="clip0_1_26">
<rect width="159.6" height="56" fill="white"/>
</clipPath>
</defs>
</svg>
