<svg width="41" height="40" viewBox="0 0 41 40" fill="none" xmlns="http://www.w3.org/2000/svg">
<g id="telegram 1">
<path id="Vector" d="M4.75229 19.5987L12.5779 23.4988C12.8805 23.6481 13.2379 23.6375 13.5272 23.4681L20.4927 19.4187L16.2766 23.1548C16.0619 23.3455 15.9393 23.6175 15.9393 23.9042V33.0044C15.9393 33.9644 17.1646 34.3685 17.7393 33.6058L21.1221 29.1083L29.4877 33.8724C30.0744 34.2098 30.8264 33.8711 30.9624 33.2004L36.1799 7.19967C36.3359 6.41832 35.5585 5.78097 34.8358 6.07164L4.83496 17.772C4.02961 18.0867 3.9776 19.2134 4.75229 19.5987ZM33.8598 8.59971L29.2743 31.4497L21.3474 26.9349C20.9154 26.6882 20.3594 26.7976 20.0527 27.2029L17.9393 30.0123V24.3535L29.341 14.2519C30.2437 13.4532 29.2063 12.0331 28.1756 12.6385L12.9885 21.4681L7.66571 18.816L33.8598 8.59971Z" fill="#FF563F"/>
</g>
</svg>
